<mxfile host="app.diagrams.net" modified="2022-03-01T07:59:37.290Z" agent="5.0 (Windows NT 10.0; Win64; x64) AppleWebKit/537.36 (KHTML, like Gecko) Chrome/98.0.4758.102 Safari/537.36" etag="VxgMQagv7liqVzxVnkOc" version="16.6.4" type="github">
  <diagram id="EgJ7EEfOsz50NrqOtSAN" name="Page-1">
    <mxGraphModel dx="1564" dy="948" grid="1" gridSize="10" guides="1" tooltips="1" connect="1" arrows="1" fold="1" page="1" pageScale="1" pageWidth="1169" pageHeight="827" math="0" shadow="0">
      <root>
        <mxCell id="0" />
        <mxCell id="1" parent="0" />
        <mxCell id="qYgubVpo4Vi_oRc76slj-7" value="Dataland" style="whiteSpace=wrap;html=1;fontSize=13;points=[[0,0,0,0,0],[0,0.25,0,0,0],[0,0.5,0,0,0],[0,0.75,0,0,0],[0,1,0,0,0],[0.1,0,0,0,0],[0.2,0,0,0,0],[0.25,1,0,0,0],[0.3,0,0,0,0],[0.4,0,0,0,0],[0.5,0,0,0,0],[0.5,1,0,0,0],[0.6,0,0,0,0],[0.7,0,0,0,0],[0.75,1,0,0,0],[0.8,0,0,0,0],[0.9,0,0,0,0],[1,0,0,0,0],[1,0.25,0,0,0],[1,0.5,0,0,0],[1,0.75,0,0,0],[1,1,0,0,0]];verticalAlign=top;spacingTop=12;fillColor=#dae8fc;strokeColor=#6c8ebf;imageAspect=0;spacingLeft=90;" parent="1" vertex="1">
          <mxGeometry x="190" y="370" width="470" height="290" as="geometry" />
        </mxCell>
        <mxCell id="zA1G0P91OJ-XDcVy-FAF-19" value="&lt;span style=&quot;font-size: 13px&quot;&gt;Dataland Inbound Reverse Proxy&lt;/span&gt;" style="rounded=0;whiteSpace=wrap;html=1;fillColor=#BECADB;points=[[0,0,0,0,0],[0,0.25,0,0,0],[0,0.5,0,0,0],[0,0.75,0,0,0],[0,1,0,0,0],[0.1,0,0,0,0],[0.2,0,0,0,0],[0.25,1,0,0,0],[0.3,0,0,0,0],[0.4,0,0,0,0],[0.5,0,0,0,0],[0.5,1,0,0,0],[0.6,0,0,0,0],[0.7,0,0,0,0],[0.75,1,0,0,0],[0.8,0,0,0,0],[0.9,0,0,0,0],[1,0,0,0,0],[1,0.25,0,0,0],[1,0.5,0,0,0],[1,0.75,0,0,0],[1,1,0,0,0]];" parent="1" vertex="1">
          <mxGeometry x="210" y="360" width="430" height="20" as="geometry" />
        </mxCell>
        <mxCell id="zA1G0P91OJ-XDcVy-FAF-1" value="Dataland Backend &lt;br&gt;(Spring Boot)" style="whiteSpace=wrap;html=1;fontSize=13;points=[[0,0,0,0,0],[0,0.25,0,0,0],[0,0.5,0,0,0],[0,0.75,0,0,0],[0,1,0,0,0],[0.1,0,0,0,0],[0.2,0,0,0,0],[0.25,1,0,0,0],[0.3,0,0,0,0],[0.4,0,0,0,0],[0.5,0,0,0,0],[0.5,1,0,0,0],[0.6,0,0,0,0],[0.7,0,0,0,0],[0.75,1,0,0,0],[0.8,0,0,0,0],[0.9,0,0,0,0],[1,0,0,0,0],[1,0.25,0,0,0],[1,0.5,0,0,0],[1,0.75,0,0,0],[1,1,0,0,0]];verticalAlign=top;spacingTop=12;fillColor=#BECADB;strokeColor=#6c8ebf;imageAspect=0;" parent="1" vertex="1">
          <mxGeometry x="390" y="450" width="240" height="190" as="geometry" />
        </mxCell>
        <mxCell id="qYgubVpo4Vi_oRc76slj-55" value="EuroDaT" style="whiteSpace=wrap;html=1;aspect=fixed;fontSize=13;points=[[0,0,0,0,0],[0,0.25,0,0,0],[0,0.5,0,0,0],[0,0.75,0,0,0],[0,1,0,0,0],[0.1,0,0,0,0],[0.2,0,0,0,0],[0.25,1,0,0,0],[0.3,0,0,0,0],[0.4,0,0,0,0],[0.5,0,0,0,0],[0.5,1,0,0,0],[0.6,0,0,0,0],[0.7,0,0,0,0],[0.75,1,0,0,0],[0.8,0,0,0,0],[0.9,0,0,0,0],[1,0,0,0,0],[1,0.25,0,0,0],[1,0.5,0,0,0],[1,0.75,0,0,0],[1,1,0,0,0]];verticalAlign=top;spacingTop=12;fillColor=#d5e8d4;strokeColor=#82b366;" parent="1" vertex="1">
          <mxGeometry x="700" y="370" width="290" height="290" as="geometry" />
        </mxCell>
        <mxCell id="qYgubVpo4Vi_oRc76slj-3" value="Data Owner" style="shape=umlActor;verticalLabelPosition=bottom;verticalAlign=top;html=1;outlineConnect=0;fontSize=13;points=[[0,0.33,0,0,0],[0,0.56,0,0,0],[0,0.78,0,0,0],[0,1,0,0,0],[0.27,0.1,0,0,0],[0.5,0,0,0,0],[0.5,0.5,0,0,0],[0.77,0.1,0,0,0],[1,0.33,0,0,0],[1,0.56,0,0,0],[1,0.78,0,0,0],[1,1,0,0,0]];" parent="1" vertex="1">
          <mxGeometry x="220" y="20" width="30" height="60" as="geometry" />
        </mxCell>
        <mxCell id="qYgubVpo4Vi_oRc76slj-8" value="Dataland UI&lt;br&gt;(Vue.js)" style="whiteSpace=wrap;html=1;aspect=fixed;fontSize=13;fillColor=#dae8fc;strokeColor=#6c8ebf;" parent="1" vertex="1">
          <mxGeometry x="20" y="140" width="80" height="80" as="geometry" />
        </mxCell>
        <mxCell id="qYgubVpo4Vi_oRc76slj-9" value="PwC Questionnaire" style="whiteSpace=wrap;html=1;aspect=fixed;fontSize=13;fillColor=#DEDEDE;fontColor=#333333;strokeColor=#666666;" parent="1" vertex="1">
          <mxGeometry x="120" y="140" width="80" height="80" as="geometry" />
        </mxCell>
        <mxCell id="qYgubVpo4Vi_oRc76slj-10" value="Quentic" style="whiteSpace=wrap;html=1;aspect=fixed;fontSize=13;" parent="1" vertex="1">
          <mxGeometry x="220" y="140" width="80" height="80" as="geometry" />
        </mxCell>
        <mxCell id="qYgubVpo4Vi_oRc76slj-11" value="Quentic App" style="whiteSpace=wrap;html=1;aspect=fixed;fontSize=13;fillColor=#DEDEDE;" parent="1" vertex="1">
          <mxGeometry x="670" y="140" width="80" height="80" as="geometry" />
        </mxCell>
        <mxCell id="qYgubVpo4Vi_oRc76slj-12" value="Dataland UI&lt;br&gt;(Vue.js)" style="whiteSpace=wrap;html=1;aspect=fixed;fontSize=13;fillColor=#dae8fc;strokeColor=#6c8ebf;" parent="1" vertex="1">
          <mxGeometry x="770" y="140" width="80" height="80" as="geometry" />
        </mxCell>
        <mxCell id="qYgubVpo4Vi_oRc76slj-13" value="Data Owner Backend" style="whiteSpace=wrap;html=1;aspect=fixed;fontSize=13;fillColor=#DEDEDE;" parent="1" vertex="1">
          <mxGeometry x="420" y="140" width="80" height="80" as="geometry" />
        </mxCell>
        <mxCell id="qYgubVpo4Vi_oRc76slj-14" value="Data User Application" style="whiteSpace=wrap;html=1;aspect=fixed;fontSize=13;fillColor=#DEDEDE;" parent="1" vertex="1">
          <mxGeometry x="880" y="140" width="80" height="80" as="geometry" />
        </mxCell>
        <mxCell id="qYgubVpo4Vi_oRc76slj-16" value="" style="curved=1;endArrow=classic;html=1;rounded=0;fontSize=13;entryX=0.5;entryY=0;entryDx=0;entryDy=0;exitX=1;exitY=0.56;exitDx=0;exitDy=0;exitPerimeter=0;" parent="1" source="qYgubVpo4Vi_oRc76slj-3" target="qYgubVpo4Vi_oRc76slj-13" edge="1">
          <mxGeometry width="50" height="50" relative="1" as="geometry">
            <mxPoint x="370" y="40" as="sourcePoint" />
            <mxPoint x="360" y="25" as="targetPoint" />
            <Array as="points">
              <mxPoint x="380" y="70" />
            </Array>
          </mxGeometry>
        </mxCell>
        <mxCell id="qYgubVpo4Vi_oRc76slj-17" value="" style="curved=1;endArrow=classic;html=1;rounded=0;fontSize=13;entryX=0.5;entryY=0;entryDx=0;entryDy=0;exitX=1;exitY=0.78;exitDx=0;exitDy=0;exitPerimeter=0;" parent="1" source="qYgubVpo4Vi_oRc76slj-3" target="qYgubVpo4Vi_oRc76slj-10" edge="1">
          <mxGeometry width="50" height="50" relative="1" as="geometry">
            <mxPoint x="260" y="70" as="sourcePoint" />
            <mxPoint x="430" y="150" as="targetPoint" />
            <Array as="points">
              <mxPoint x="320" y="80" />
            </Array>
          </mxGeometry>
        </mxCell>
        <mxCell id="qYgubVpo4Vi_oRc76slj-19" value="" style="curved=1;endArrow=classic;html=1;rounded=0;fontSize=13;entryX=0.5;entryY=0;entryDx=0;entryDy=0;exitX=0;exitY=0.56;exitDx=0;exitDy=0;exitPerimeter=0;" parent="1" source="qYgubVpo4Vi_oRc76slj-3" target="qYgubVpo4Vi_oRc76slj-8" edge="1">
          <mxGeometry width="50" height="50" relative="1" as="geometry">
            <mxPoint x="180" y="30" as="sourcePoint" />
            <mxPoint x="110" y="120" as="targetPoint" />
            <Array as="points">
              <mxPoint x="130" y="60" />
            </Array>
          </mxGeometry>
        </mxCell>
        <mxCell id="qYgubVpo4Vi_oRc76slj-20" value="" style="curved=1;endArrow=classic;html=1;rounded=0;fontSize=13;entryX=0.5;entryY=0;entryDx=0;entryDy=0;exitX=0;exitY=0.78;exitDx=0;exitDy=0;exitPerimeter=0;" parent="1" source="qYgubVpo4Vi_oRc76slj-3" target="qYgubVpo4Vi_oRc76slj-9" edge="1">
          <mxGeometry width="50" height="50" relative="1" as="geometry">
            <mxPoint x="170" y="60" as="sourcePoint" />
            <mxPoint x="70" y="150" as="targetPoint" />
            <Array as="points">
              <mxPoint x="160" y="80" />
            </Array>
          </mxGeometry>
        </mxCell>
        <mxCell id="qYgubVpo4Vi_oRc76slj-23" value="" style="edgeStyle=elbowEdgeStyle;elbow=vertical;endArrow=classic;html=1;rounded=0;fontSize=13;exitX=0.5;exitY=1;exitDx=0;exitDy=0;entryX=0.1;entryY=0;entryDx=0;entryDy=0;entryPerimeter=0;startArrow=none;startFill=0;endFill=1;" parent="1" source="qYgubVpo4Vi_oRc76slj-8" target="zA1G0P91OJ-XDcVy-FAF-19" edge="1">
          <mxGeometry width="50" height="50" relative="1" as="geometry">
            <mxPoint x="520" y="600" as="sourcePoint" />
            <mxPoint x="570" y="550" as="targetPoint" />
            <Array as="points">
              <mxPoint x="210" y="330" />
            </Array>
          </mxGeometry>
        </mxCell>
        <mxCell id="qYgubVpo4Vi_oRc76slj-24" value="" style="edgeStyle=elbowEdgeStyle;elbow=vertical;endArrow=classic;html=1;rounded=0;fontSize=13;exitX=0.5;exitY=1;exitDx=0;exitDy=0;entryX=0.2;entryY=0;entryDx=0;entryDy=0;entryPerimeter=0;" parent="1" source="qYgubVpo4Vi_oRc76slj-9" target="zA1G0P91OJ-XDcVy-FAF-19" edge="1">
          <mxGeometry width="50" height="50" relative="1" as="geometry">
            <mxPoint x="70" y="230" as="sourcePoint" />
            <mxPoint x="286" y="330" as="targetPoint" />
            <Array as="points">
              <mxPoint x="290" y="290" />
            </Array>
          </mxGeometry>
        </mxCell>
        <mxCell id="qYgubVpo4Vi_oRc76slj-25" value="" style="edgeStyle=elbowEdgeStyle;elbow=vertical;endArrow=classic;html=1;rounded=0;fontSize=13;exitX=0.5;exitY=1;exitDx=0;exitDy=0;entryX=0.3;entryY=0;entryDx=0;entryDy=0;entryPerimeter=0;" parent="1" source="qYgubVpo4Vi_oRc76slj-10" target="zA1G0P91OJ-XDcVy-FAF-19" edge="1">
          <mxGeometry width="50" height="50" relative="1" as="geometry">
            <mxPoint x="190" y="230" as="sourcePoint" />
            <mxPoint x="342" y="330" as="targetPoint" />
            <Array as="points">
              <mxPoint x="380" y="270" />
            </Array>
          </mxGeometry>
        </mxCell>
        <mxCell id="qYgubVpo4Vi_oRc76slj-26" value="" style="edgeStyle=elbowEdgeStyle;elbow=vertical;endArrow=classic;html=1;rounded=0;fontSize=13;exitX=0.5;exitY=1;exitDx=0;exitDy=0;entryX=0.5;entryY=0;entryDx=0;entryDy=0;entryPerimeter=0;" parent="1" source="qYgubVpo4Vi_oRc76slj-13" target="zA1G0P91OJ-XDcVy-FAF-19" edge="1">
          <mxGeometry width="50" height="50" relative="1" as="geometry">
            <mxPoint x="310" y="230" as="sourcePoint" />
            <mxPoint x="420" y="340" as="targetPoint" />
            <Array as="points">
              <mxPoint x="340" y="250" />
            </Array>
          </mxGeometry>
        </mxCell>
        <mxCell id="qYgubVpo4Vi_oRc76slj-27" value="" style="edgeStyle=elbowEdgeStyle;elbow=vertical;endArrow=classic;html=1;rounded=0;fontSize=13;exitX=0.5;exitY=1;exitDx=0;exitDy=0;entryX=0.7;entryY=0;entryDx=0;entryDy=0;entryPerimeter=0;" parent="1" source="qYgubVpo4Vi_oRc76slj-11" target="zA1G0P91OJ-XDcVy-FAF-19" edge="1">
          <mxGeometry width="50" height="50" relative="1" as="geometry">
            <mxPoint x="624" y="230" as="sourcePoint" />
            <mxPoint x="519" y="360" as="targetPoint" />
            <Array as="points">
              <mxPoint x="544" y="260" />
            </Array>
          </mxGeometry>
        </mxCell>
        <mxCell id="qYgubVpo4Vi_oRc76slj-28" value="" style="edgeStyle=elbowEdgeStyle;elbow=vertical;endArrow=classic;html=1;rounded=0;fontSize=13;exitX=0.5;exitY=1;exitDx=0;exitDy=0;entryX=0.8;entryY=0;entryDx=0;entryDy=0;entryPerimeter=0;" parent="1" source="qYgubVpo4Vi_oRc76slj-12" target="zA1G0P91OJ-XDcVy-FAF-19" edge="1">
          <mxGeometry width="50" height="50" relative="1" as="geometry">
            <mxPoint x="630" y="230" as="sourcePoint" />
            <mxPoint x="506" y="380" as="targetPoint" />
            <Array as="points">
              <mxPoint x="554" y="270" />
            </Array>
          </mxGeometry>
        </mxCell>
        <mxCell id="qYgubVpo4Vi_oRc76slj-29" value="" style="edgeStyle=elbowEdgeStyle;elbow=vertical;endArrow=classic;html=1;rounded=0;fontSize=13;exitX=0.5;exitY=1;exitDx=0;exitDy=0;entryX=0.9;entryY=0;entryDx=0;entryDy=0;entryPerimeter=0;" parent="1" source="qYgubVpo4Vi_oRc76slj-14" target="zA1G0P91OJ-XDcVy-FAF-19" edge="1">
          <mxGeometry width="50" height="50" relative="1" as="geometry">
            <mxPoint x="750" y="230" as="sourcePoint" />
            <mxPoint x="534" y="380" as="targetPoint" />
            <Array as="points">
              <mxPoint x="564" y="280" />
            </Array>
          </mxGeometry>
        </mxCell>
        <mxCell id="qYgubVpo4Vi_oRc76slj-30" value="" style="curved=1;endArrow=classic;html=1;rounded=0;fontSize=13;entryX=0.5;entryY=0;entryDx=0;entryDy=0;exitX=1;exitY=0.56;exitDx=0;exitDy=0;exitPerimeter=0;" parent="1" source="qYgubVpo4Vi_oRc76slj-32" target="qYgubVpo4Vi_oRc76slj-14" edge="1">
          <mxGeometry width="50" height="50" relative="1" as="geometry">
            <mxPoint x="775" y="69.9989655172414" as="sourcePoint" />
            <mxPoint x="945" y="157.93" as="targetPoint" />
            <Array as="points">
              <mxPoint x="860" y="80" />
            </Array>
          </mxGeometry>
        </mxCell>
        <mxCell id="qYgubVpo4Vi_oRc76slj-32" value="Data User" style="shape=umlActor;verticalLabelPosition=bottom;verticalAlign=top;html=1;outlineConnect=0;fontSize=13;points=[[0,0.33,0,0,0],[0,0.56,0,0,0],[0,0.78,0,0,0],[0,1,0,0,0],[0.27,0.1,0,0,0],[0.5,0,0,0,0],[0.5,0.5,0,0,0],[0.77,0.1,0,0,0],[1,0.33,0,0,0],[1,0.56,0,0,0],[1,0.78,0,0,0],[1,1,0,0,0]];" parent="1" vertex="1">
          <mxGeometry x="725" y="20" width="30" height="60" as="geometry" />
        </mxCell>
        <mxCell id="qYgubVpo4Vi_oRc76slj-35" value="" style="curved=1;endArrow=classic;html=1;rounded=0;fontSize=13;entryX=0.5;entryY=0;entryDx=0;entryDy=0;exitX=1;exitY=0.78;exitDx=0;exitDy=0;exitPerimeter=0;" parent="1" source="qYgubVpo4Vi_oRc76slj-32" target="qYgubVpo4Vi_oRc76slj-12" edge="1">
          <mxGeometry width="50" height="50" relative="1" as="geometry">
            <mxPoint x="790" y="110" as="sourcePoint" />
            <mxPoint x="870" y="150" as="targetPoint" />
            <Array as="points">
              <mxPoint x="810" y="110" />
            </Array>
          </mxGeometry>
        </mxCell>
        <mxCell id="qYgubVpo4Vi_oRc76slj-36" value="" style="curved=1;endArrow=classic;html=1;rounded=0;fontSize=13;entryX=0.5;entryY=0;entryDx=0;entryDy=0;exitX=0;exitY=0.78;exitDx=0;exitDy=0;exitPerimeter=0;" parent="1" source="qYgubVpo4Vi_oRc76slj-32" target="qYgubVpo4Vi_oRc76slj-11" edge="1">
          <mxGeometry width="50" height="50" relative="1" as="geometry">
            <mxPoint x="765" y="76.79999999999995" as="sourcePoint" />
            <mxPoint x="750" y="150" as="targetPoint" />
            <Array as="points">
              <mxPoint x="630" y="80" />
            </Array>
          </mxGeometry>
        </mxCell>
        <mxCell id="qYgubVpo4Vi_oRc76slj-37" value="CRIF&lt;br&gt;Skyminder" style="whiteSpace=wrap;html=1;aspect=fixed;fontSize=13;fillColor=#DEDEDE;" parent="1" vertex="1">
          <mxGeometry x="30" y="530" width="90" height="90" as="geometry" />
        </mxCell>
        <mxCell id="qYgubVpo4Vi_oRc76slj-44" value="" style="endArrow=classic;html=1;rounded=0;fontSize=13;exitX=0;exitY=0.75;exitDx=0;exitDy=0;entryX=1;entryY=0.5;entryDx=0;entryDy=0;edgeStyle=orthogonalEdgeStyle;" parent="1" source="qYgubVpo4Vi_oRc76slj-38" target="qYgubVpo4Vi_oRc76slj-37" edge="1">
          <mxGeometry width="50" height="50" relative="1" as="geometry">
            <mxPoint x="180" y="595" as="sourcePoint" />
            <mxPoint x="270" y="450" as="targetPoint" />
            <Array as="points">
              <mxPoint x="160" y="598" />
              <mxPoint x="160" y="575" />
            </Array>
          </mxGeometry>
        </mxCell>
        <mxCell id="qYgubVpo4Vi_oRc76slj-45" value="Dataland UI&lt;br&gt;Server (nginx)" style="whiteSpace=wrap;html=1;aspect=fixed;fontSize=13;fillColor=#BECADB;strokeColor=#6c8ebf;" parent="1" vertex="1">
          <mxGeometry x="300" y="500" width="80" height="80" as="geometry" />
        </mxCell>
        <mxCell id="qYgubVpo4Vi_oRc76slj-48" value="Connection to Dataland UI Server not shown" style="text;html=1;strokeColor=none;fillColor=none;align=center;verticalAlign=middle;whiteSpace=wrap;rounded=0;fontSize=9;" parent="1" vertex="1">
          <mxGeometry x="735" y="230" width="85" height="30" as="geometry" />
        </mxCell>
        <mxCell id="qYgubVpo4Vi_oRc76slj-51" value="Storage" style="whiteSpace=wrap;html=1;aspect=fixed;fontSize=9;fillColor=#A9B8A8;strokeColor=#82b366;" parent="1" vertex="1">
          <mxGeometry x="800" y="550" width="80" height="80" as="geometry" />
        </mxCell>
        <mxCell id="qYgubVpo4Vi_oRc76slj-53" value="" style="endArrow=classic;startArrow=none;html=1;rounded=0;fontSize=9;entryX=0;entryY=0.75;entryDx=0;entryDy=0;startFill=1;entryPerimeter=0;edgeStyle=orthogonalEdgeStyle;" parent="1" source="qYgubVpo4Vi_oRc76slj-39" target="qYgubVpo4Vi_oRc76slj-55" edge="1">
          <mxGeometry width="50" height="50" relative="1" as="geometry">
            <mxPoint x="680" y="590" as="sourcePoint" />
            <mxPoint x="690" y="575" as="targetPoint" />
          </mxGeometry>
        </mxCell>
        <mxCell id="qYgubVpo4Vi_oRc76slj-54" value="The Skyminder Client is closed-Source for Confidentiality Reasons" style="text;html=1;strokeColor=none;fillColor=none;align=center;verticalAlign=middle;whiteSpace=wrap;rounded=0;fontSize=9;" parent="1" vertex="1">
          <mxGeometry x="395" y="620" width="110" height="30" as="geometry" />
        </mxCell>
        <mxCell id="qYgubVpo4Vi_oRc76slj-56" value="&lt;b&gt;OPTIONAL&lt;/b&gt;&lt;br&gt;Data Provider and Data User can opt-in to connect directly to EuroDaT or route Data through Dataland" style="text;html=1;strokeColor=none;fillColor=none;align=center;verticalAlign=middle;whiteSpace=wrap;rounded=0;fontSize=9;" parent="1" vertex="1">
          <mxGeometry x="920" y="260" width="150" height="30" as="geometry" />
        </mxCell>
        <mxCell id="qYgubVpo4Vi_oRc76slj-58" value="" style="edgeStyle=elbowEdgeStyle;elbow=vertical;endArrow=classic;html=1;rounded=0;fontSize=13;exitX=0.75;exitY=1;exitDx=0;exitDy=0;entryX=0.8;entryY=0;entryDx=0;entryDy=0;entryPerimeter=0;dashed=1;" parent="1" source="qYgubVpo4Vi_oRc76slj-14" target="qYgubVpo4Vi_oRc76slj-55" edge="1">
          <mxGeometry width="50" height="50" relative="1" as="geometry">
            <mxPoint x="870" y="230" as="sourcePoint" />
            <mxPoint x="930" y="330" as="targetPoint" />
            <Array as="points">
              <mxPoint x="910" y="290" />
            </Array>
          </mxGeometry>
        </mxCell>
        <mxCell id="mH02m_fli5AvtXu53zwJ-1" value="CRIF ESG Daten" style="whiteSpace=wrap;html=1;aspect=fixed;fontSize=13;" parent="1" vertex="1">
          <mxGeometry x="320" y="140" width="80" height="80" as="geometry" />
        </mxCell>
        <mxCell id="mH02m_fli5AvtXu53zwJ-2" value="" style="edgeStyle=elbowEdgeStyle;elbow=vertical;endArrow=classic;html=1;rounded=0;fontSize=13;exitX=0.5;exitY=1;exitDx=0;exitDy=0;entryX=0.4;entryY=0;entryDx=0;entryDy=0;entryPerimeter=0;" parent="1" source="mH02m_fli5AvtXu53zwJ-1" target="zA1G0P91OJ-XDcVy-FAF-19" edge="1">
          <mxGeometry width="50" height="50" relative="1" as="geometry">
            <mxPoint x="270.0000000000002" y="230" as="sourcePoint" />
            <mxPoint x="390.0000000000002" y="380" as="targetPoint" />
            <Array as="points">
              <mxPoint x="390" y="250" />
            </Array>
          </mxGeometry>
        </mxCell>
        <mxCell id="mH02m_fli5AvtXu53zwJ-3" value="CRIF" style="whiteSpace=wrap;html=1;aspect=fixed;fontSize=13;fillColor=#DEDEDE;" parent="1" vertex="1">
          <mxGeometry x="565" y="140" width="80" height="80" as="geometry" />
        </mxCell>
        <mxCell id="mH02m_fli5AvtXu53zwJ-4" value="" style="edgeStyle=elbowEdgeStyle;elbow=vertical;endArrow=classic;html=1;rounded=0;fontSize=13;exitX=0.5;exitY=1;exitDx=0;exitDy=0;entryX=0.6;entryY=0;entryDx=0;entryDy=0;entryPerimeter=0;" parent="1" source="mH02m_fli5AvtXu53zwJ-3" target="zA1G0P91OJ-XDcVy-FAF-19" edge="1">
          <mxGeometry width="50" height="50" relative="1" as="geometry">
            <mxPoint x="720" y="230" as="sourcePoint" />
            <mxPoint x="513" y="380" as="targetPoint" />
            <Array as="points">
              <mxPoint x="540" y="250" />
            </Array>
          </mxGeometry>
        </mxCell>
        <mxCell id="mH02m_fli5AvtXu53zwJ-5" value="" style="curved=1;endArrow=classic;html=1;rounded=0;fontSize=13;entryX=0.5;entryY=0;entryDx=0;entryDy=0;exitX=0;exitY=0.56;exitDx=0;exitDy=0;exitPerimeter=0;" parent="1" source="qYgubVpo4Vi_oRc76slj-32" target="mH02m_fli5AvtXu53zwJ-3" edge="1">
          <mxGeometry width="50" height="50" relative="1" as="geometry">
            <mxPoint x="685" y="59.99999999999996" as="sourcePoint" />
            <mxPoint x="670" y="133.2" as="targetPoint" />
            <Array as="points">
              <mxPoint x="610" y="70" />
            </Array>
          </mxGeometry>
        </mxCell>
        <mxCell id="mH02m_fli5AvtXu53zwJ-12" value="User Management (KeyCloak)" style="whiteSpace=wrap;html=1;aspect=fixed;fontSize=13;fillColor=#BECADB;strokeColor=#6c8ebf;" parent="1" vertex="1">
          <mxGeometry x="210" y="500" width="80" height="80" as="geometry" />
        </mxCell>
        <mxCell id="mH02m_fli5AvtXu53zwJ-16" value="Identitiy Provider (LinkedIn, Xing, Google, ...)" style="whiteSpace=wrap;html=1;aspect=fixed;fontSize=13;fillColor=#DEDEDE;" parent="1" vertex="1">
          <mxGeometry x="30" y="380" width="80" height="80" as="geometry" />
        </mxCell>
        <mxCell id="mH02m_fli5AvtXu53zwJ-17" value="" style="endArrow=classic;html=1;rounded=0;exitX=0;exitY=0.5;exitDx=0;exitDy=0;entryX=1;entryY=0.5;entryDx=0;entryDy=0;edgeStyle=orthogonalEdgeStyle;" parent="1" source="mH02m_fli5AvtXu53zwJ-12" target="mH02m_fli5AvtXu53zwJ-16" edge="1">
          <mxGeometry width="50" height="50" relative="1" as="geometry">
            <mxPoint x="770" y="540" as="sourcePoint" />
            <mxPoint x="820" y="490" as="targetPoint" />
          </mxGeometry>
        </mxCell>
        <mxCell id="mH02m_fli5AvtXu53zwJ-19" value="Quentic" style="whiteSpace=wrap;html=1;aspect=fixed;fontSize=13;fillColor=#DEDEDE;" parent="1" vertex="1">
          <mxGeometry x="220" y="140" width="80" height="80" as="geometry" />
        </mxCell>
        <mxCell id="mH02m_fli5AvtXu53zwJ-20" value="CRIF ESG Daten" style="whiteSpace=wrap;html=1;aspect=fixed;fontSize=13;fillColor=#DEDEDE;" parent="1" vertex="1">
          <mxGeometry x="320" y="140" width="80" height="80" as="geometry" />
        </mxCell>
        <mxCell id="mH02m_fli5AvtXu53zwJ-22" value="Legend" style="rounded=0;whiteSpace=wrap;html=1;fillColor=#fff2cc;gradientDirection=north;verticalAlign=top;spacingTop=12;strokeColor=#d6b656;" parent="1" vertex="1">
          <mxGeometry x="610" y="670" width="540" height="150" as="geometry" />
        </mxCell>
        <mxCell id="mH02m_fli5AvtXu53zwJ-26" value="" style="group" parent="1" vertex="1" connectable="0">
          <mxGeometry x="620" y="780" width="280" height="30" as="geometry" />
        </mxCell>
        <mxCell id="mH02m_fli5AvtXu53zwJ-9" value="" style="endArrow=classic;html=1;rounded=0;" parent="mH02m_fli5AvtXu53zwJ-26" edge="1">
          <mxGeometry width="50" height="50" relative="1" as="geometry">
            <mxPoint x="164" y="15" as="sourcePoint" />
            <mxPoint x="114" y="14.999999999999773" as="targetPoint" />
          </mxGeometry>
        </mxCell>
        <mxCell id="mH02m_fli5AvtXu53zwJ-10" value="Provides a (network) connection" style="text;html=1;strokeColor=none;fillColor=none;align=center;verticalAlign=middle;whiteSpace=wrap;rounded=0;" parent="mH02m_fli5AvtXu53zwJ-26" vertex="1">
          <mxGeometry width="120" height="30" as="geometry" />
        </mxCell>
        <mxCell id="mH02m_fli5AvtXu53zwJ-11" value="Requests a network connection" style="text;html=1;strokeColor=none;fillColor=none;align=center;verticalAlign=middle;whiteSpace=wrap;rounded=0;" parent="mH02m_fli5AvtXu53zwJ-26" vertex="1">
          <mxGeometry x="170" width="110" height="30" as="geometry" />
        </mxCell>
        <mxCell id="mH02m_fli5AvtXu53zwJ-27" value="In Scope of Dataland" style="rounded=0;whiteSpace=wrap;html=1;fillColor=#dae8fc;gradientDirection=north;strokeColor=#6c8ebf;" parent="1" vertex="1">
          <mxGeometry x="960" y="690" width="180" height="30" as="geometry" />
        </mxCell>
        <mxCell id="mH02m_fli5AvtXu53zwJ-28" value="In Scope of EuroDaT" style="rounded=0;whiteSpace=wrap;html=1;fillColor=#d5e8d4;gradientDirection=north;strokeColor=#82b366;" parent="1" vertex="1">
          <mxGeometry x="960" y="730" width="180" height="30" as="geometry" />
        </mxCell>
        <mxCell id="mH02m_fli5AvtXu53zwJ-29" value="External Components" style="rounded=0;whiteSpace=wrap;html=1;fillColor=#DEDEDE;gradientDirection=north;strokeColor=#6c8ebf;" parent="1" vertex="1">
          <mxGeometry x="960" y="770" width="180" height="30" as="geometry" />
        </mxCell>
        <mxCell id="qYgubVpo4Vi_oRc76slj-39" value="EuroDaT&amp;nbsp;&lt;br&gt;Dataspace Connector" style="whiteSpace=wrap;html=1;aspect=fixed;fontSize=13;fillColor=#dae8fc;strokeColor=#6c8ebf;" parent="1" vertex="1">
          <mxGeometry x="510" y="530" width="90" height="90" as="geometry" />
        </mxCell>
        <mxCell id="qYgubVpo4Vi_oRc76slj-38" value="Skyminder Client" style="whiteSpace=wrap;html=1;aspect=fixed;fontSize=13;fillColor=#dae8fc;strokeColor=#6c8ebf;" parent="1" vertex="1">
          <mxGeometry x="410" y="530" width="90" height="90" as="geometry" />
        </mxCell>
        <mxCell id="zA1G0P91OJ-XDcVy-FAF-8" value="" style="endArrow=none;startArrow=classic;html=1;rounded=0;fontSize=9;entryX=0;entryY=0.5;entryDx=0;entryDy=0;startFill=1;" parent="1" source="qYgubVpo4Vi_oRc76slj-7" edge="1">
          <mxGeometry width="50" height="50" relative="1" as="geometry">
            <mxPoint x="634.0800000000002" y="578.06" as="sourcePoint" />
            <mxPoint x="660" y="575" as="targetPoint" />
          </mxGeometry>
        </mxCell>
        <mxCell id="zA1G0P91OJ-XDcVy-FAF-11" value="" style="edgeStyle=orthogonalEdgeStyle;rounded=0;orthogonalLoop=1;jettySize=auto;html=1;strokeColor=default;entryX=0.5;entryY=0;entryDx=0;entryDy=0;entryPerimeter=0;exitX=0.5;exitY=1;exitDx=0;exitDy=0;exitPerimeter=0;" parent="1" source="zA1G0P91OJ-XDcVy-FAF-19" target="zA1G0P91OJ-XDcVy-FAF-1" edge="1">
          <mxGeometry relative="1" as="geometry">
            <mxPoint x="380.0000000000002" y="430.0000000000002" as="sourcePoint" />
          </mxGeometry>
        </mxCell>
        <mxCell id="zA1G0P91OJ-XDcVy-FAF-14" value="" style="edgeStyle=orthogonalEdgeStyle;rounded=0;orthogonalLoop=1;jettySize=auto;html=1;strokeColor=default;exitX=0.25;exitY=1;exitDx=0;exitDy=0;exitPerimeter=0;" parent="1" source="zA1G0P91OJ-XDcVy-FAF-19" target="qYgubVpo4Vi_oRc76slj-45" edge="1">
          <mxGeometry relative="1" as="geometry">
            <mxPoint x="340" y="470" as="sourcePoint" />
          </mxGeometry>
        </mxCell>
      </root>
    </mxGraphModel>
  </diagram>
</mxfile>
